<svg xmlns="http://www.w3.org/2000/svg" xmlns:xlink="http://www.w3.org/1999/xlink" width="105.41mm" height="105.41mm" viewBox="4010 2996.3 415 415"><title></title><style type="text/css">
*[layerid="1"] {stroke:#FF0000;fill:#FF0000;}
*[layerid="2"] {stroke:#0000FF;fill:#0000FF;}
*[layerid="3"] {stroke:#FFCC00;fill:#FFCC00;}
*[layerid="4"] {stroke:#66CC33;fill:#66CC33;}
*[layerid="5"] {stroke:#808080;fill:#808080;}
*[layerid="6"] {stroke:#800000;fill:#800000;}
*[layerid="7"] {stroke:#800080;fill:#800080;stroke-opacity:0.7;fill-opacity:0.7;}
*[layerid="8"] {stroke:#AA00FF;fill:#AA00FF;stroke-opacity:0.7;fill-opacity:0.7;}
*[layerid="9"] {stroke:#6464FF;fill:#6464FF;}
*[layerid="10"] {stroke:#FF00FF;fill:#FF00FF;}
*[layerid="11"] {stroke:#C0C0C0;fill:#C0C0C0;}
*[layerid="12"] {stroke:#FFFFFF;fill:#FFFFFF;}
*[layerid="13"] {stroke:#33CC99;fill:#33CC99;}
*[layerid="14"] {stroke:#5555FF;fill:#5555FF;}
*[layerid="15"] {stroke:#F022F0;fill:#F022F0;}
*[layerid="19"] {stroke:#66CCFF;fill:#66CCFF;}
*[layerid="21"] {stroke:#999966;fill:#999966;}
*[layerid="22"] {stroke:#008000;fill:#008000;}
*[layerid="23"] {stroke:#00FF00;fill:#00FF00;}
*[layerid="24"] {stroke:#BC8E00;fill:#BC8E00;}
*[layerid="25"] {stroke:#70DBFA;fill:#70DBFA;}
*[layerid="26"] {stroke:#00CC66;fill:#00CC66;}
*[layerid="27"] {stroke:#9966FF;fill:#9966FF;}
*[layerid="28"] {stroke:#800080;fill:#800080;}
*[layerid="29"] {stroke:#008080;fill:#008080;}
*[layerid="30"] {stroke:#15935F;fill:#15935F;}
*[layerid="31"] {stroke:#000080;fill:#000080;}
*[layerid="32"] {stroke:#00B400;fill:#00B400;}
*[layerid="33"] {stroke:#2E4756;fill:#2E4756;}
*[layerid="34"] {stroke:#99842F;fill:#99842F;}
*[layerid="35"] {stroke:#FFFFAA;fill:#FFFFAA;}
*[layerid="36"] {stroke:#99842F;fill:#99842F;}
*[layerid="37"] {stroke:#2E4756;fill:#2E4756;}
*[layerid="38"] {stroke:#3535FF;fill:#3535FF;}
*[layerid="39"] {stroke:#8000BC;fill:#8000BC;}
*[layerid="40"] {stroke:#43AE5F;fill:#43AE5F;}
*[layerid="41"] {stroke:#C3ECCE;fill:#C3ECCE;}
*[layerid="42"] {stroke:#728978;fill:#728978;}
*[layerid="43"] {stroke:#39503F;fill:#39503F;}
*[layerid="44"] {stroke:#0C715D;fill:#0C715D;}
*[layerid="45"] {stroke:#5A8A80;fill:#5A8A80;}
*[layerid="46"] {stroke:#2B937E;fill:#2B937E;}
*[layerid="47"] {stroke:#23999D;fill:#23999D;}
*[layerid="48"] {stroke:#45B4E3;fill:#45B4E3;}
*[layerid="49"] {stroke:#215DA1;fill:#215DA1;}
*[layerid="50"] {stroke:#4564D7;fill:#4564D7;}
*[layerid="51"] {stroke:#6969E9;fill:#6969E9;}
*[layerid="52"] {stroke:#9069E9;fill:#9069E9;}
*[layerid="99"] {stroke:#00CCCC;fill:#00CCCC;stroke-opacity:0.6;fill-opacity:0.6;}
*[layerid="100"] {stroke:#CC9999;fill:#CC9999;}
*[layerid="101"] {stroke:#66FFCC;fill:#66FFCC;}
*[layerid="Hole"] {stroke:#222222;fill:#222222;}
*[layerid="DRCError"] {stroke:#FAD609;fill:#FAD609;}
*[fill="none"] {fill: none;}
*[stroke="none"] {stroke: none;}
path, polyline, polygon, line {stroke-linecap:round;}
g[c_partid="part_pad"][layerid="1"] ellipse:not([c_etype="pad_outer"]) {fill:#FF0000;}
g[c_partid="part_pad"][layerid="1"] polygon:not([c_etype="pad_outer"]) {fill:#FF0000;}
g[c_partid="part_pad"][layerid="1"] polyline:not([c_etype="pad_outer"]) {stroke:#FF0000;}
g[c_partid="part_pad"][layerid="2"] ellipse:not([c_etype="pad_outer"]) {fill:#0000FF;}
g[c_partid="part_pad"][layerid="2"] polygon:not([c_etype="pad_outer"]) {fill:#0000FF;}
g[c_partid="part_pad"][layerid="2"] polyline:not([c_etype="pad_outer"]) {stroke:#0000FF;}
g[c_partid="part_pad"][layerid="11"] ellipse:not([c_etype="pad_outer"]) {fill:#C0C0C0;}
g[c_partid="part_pad"][layerid="11"] polygon:not([c_etype="pad_outer"]) {fill:#C0C0C0;}
g[c_partid="part_pad"][layerid="11"] polyline:not([c_etype="pad_outer"]) {stroke:#C0C0C0;}
g[c_partid="part_pad"][layerid="11"] circle {fill:#222222;}
g[c_partid="part_pad"][layerid="11"] > polyline:nth-of-type(2) {stroke:#222222;}
g[c_partid="part_pad"][layerid="11"][c_shape="ELLIPSE"]  polyline:nth-last-of-type(1) {stroke:#222222;}
g[c_partid="part_pad"][layerid="11"][c_shape="RECT"]  polyline:nth-last-of-type(1) {stroke:#222222;}
g[c_partid="part_pad"][layerid="11"][c_shape="POLYGON"]  polyline:nth-last-of-type(1) {stroke:#222222;}
g[c_partid="part_via"] > * + circle, #gCurParts g[c_partid="part_via"] > * + circle {fill:#222222;}
g[c_partid="part_pad"] > polygon[c_etype="pad_outer"], #gCurParts g[c_partid="part_pad"] > polygon[c_etype="pad_outer"] {stroke-linejoin: round;stroke-miterlimit: 100;}
g[c_partid="part_hole"] > circle {fill: #222222;}path, polyline, polygon {stroke-linejoin:round;}
rect, circle, ellipse, polyline, line, polygon, path {shape-rendering:crispEdges;}
</style>
<rect x="4010" y="2996.3" width="415" height="415" fill="#000000" stroke="none"/><path d="M 4028.0704 3398.98 L 4027.91246 3398.95894 4027.19761 3398.92332 4026.53258 3398.82388 4025.88055 3398.65953 4025.24784 3398.43188 4024.64058 3398.14312 4024.06465 3397.79605 4023.52563 3397.39404 4023.02875 3396.94098 4022.57883 3396.44126 4022.18021 3395.89973 4021.83677 3395.32163 4021.55183 3394.71256 4021.32816 3394.07843 4021.16791 3393.42538 4021.07265 3392.75974 4021.04117 3392.08407 4021.0201 3391.92578 4021.0201 3014.20599 4021.05572 3013.47625 4021.15512 3012.81148 4021.31947 3012.15945 4021.54712 3011.52674 4021.83588 3010.91948 4022.18295 3010.34355 4022.58496 3009.80453 4023.03802 3009.30765 4023.53774 3008.85773 4024.07927 3008.45911 4024.65737 3008.11567 4025.26644 3007.83073 4025.90057 3007.60706 4026.55362 3007.44681 4027.21926 3007.35155 4027.90599 3007.32 4405.6298 3007.32 4405.78774 3007.34106 4406.50259 3007.37668 4407.16762 3007.47612 4407.81965 3007.64047 4408.45236 3007.86812 4409.05962 3008.15688 4409.63555 3008.50395 4410.17457 3008.90596 4410.67145 3009.35902 4411.12137 3009.85874 4411.51999 3010.40027 4411.86343 3010.97837 4412.14837 3011.58744 4412.37204 3012.22157 4412.53229 3012.87462 4412.62755 3013.54026 4412.65903 3014.21593 4412.6801 3014.37422 4412.6801 3391.9297 4412.65904 3392.08764 4412.62342 3392.80249 4412.52398 3393.46752 4412.35963 3394.11955 4412.13198 3394.75226 4411.84322 3395.35952 4411.49615 3395.93545 4411.09414 3396.47447 4410.64108 3396.97135 4410.14136 3397.42127 4409.59983 3397.81989 4409.02173 3398.16333 4408.41266 3398.44827 4407.77853 3398.67194 4407.12548 3398.83219 4406.45984 3398.92745 4405.78417 3398.95893 4405.62588 3398.98 4028.0704 3398.98 Z M 4035.7482 3393.14557 L 4036.5688 3393.10763 4037.38239 3392.99414 4038.18204 3392.80607 4038.96093 3392.54501 4039.71241 3392.2132 4040.43006 3391.81347 4041.10777 3391.34922 4041.73976 3390.82443 4042.32063 3390.24356 4042.84542 3389.61157 4043.30967 3388.93386 4043.7094 3388.21621 4044.04121 3387.46473 4044.30227 3386.68584 4044.49034 3385.88619 4044.60383 3385.0726 4044.64177 3384.252 4044.60383 3383.4314 4044.49034 3382.61781 4044.30227 3381.81816 4044.04121 3381.03927 4043.7094 3380.28779 4043.30967 3379.57014 4042.84542 3378.89243 4042.32063 3378.26044 4041.73976 3377.67957 4041.10777 3377.15478 4040.43006 3376.69053 4039.71241 3376.2908 4038.96093 3375.95899 4038.18204 3375.69793 4037.38239 3375.50986 4036.5688 3375.39637 4035.7482 3375.35843 4034.9276 3375.39637 4034.11401 3375.50986 4033.31436 3375.69793 4032.53547 3375.95899 4031.78399 3376.2908 4031.06634 3376.69053 4030.38863 3377.15478 4029.75664 3377.67957 4029.17577 3378.26044 4028.65098 3378.89243 4028.18673 3379.57014 4027.787 3380.28779 4027.45519 3381.03927 4027.19413 3381.81816 4027.00606 3382.61781 4026.89257 3383.4314 4026.85463 3384.252 4026.89257 3385.0726 4027.00606 3385.88619 4027.19413 3386.68584 4027.45519 3387.46473 4027.787 3388.21621 4028.18673 3388.93386 4028.65098 3389.61157 4029.17577 3390.24356 4029.75664 3390.82443 4030.38863 3391.34922 4031.06634 3391.81347 4031.78399 3392.2132 4032.53547 3392.54501 4033.31436 3392.80607 4034.11401 3392.99414 4034.9276 3393.10763 4035.7482 3393.14557 Z M 4035.7481 3030.94157 L 4036.5687 3030.90363 4037.38229 3030.79014 4038.18194 3030.60207 4038.96083 3030.34101 4039.71231 3030.0092 4040.42996 3029.60947 4041.10767 3029.14522 4041.73966 3028.62043 4042.32053 3028.03956 4042.84532 3027.40757 4043.30957 3026.72986 4043.7093 3026.01221 4044.04111 3025.26073 4044.30217 3024.48184 4044.49024 3023.68219 4044.60373 3022.8686 4044.64167 3022.048 4044.60373 3021.2274 4044.49024 3020.41381 4044.30217 3019.61416 4044.04111 3018.83527 4043.7093 3018.08379 4043.30957 3017.36614 4042.84532 3016.68843 4042.32053 3016.05644 4041.73966 3015.47557 4041.10767 3014.95078 4040.42996 3014.48653 4039.71231 3014.0868 4038.96083 3013.75499 4038.18194 3013.49393 4037.38229 3013.30586 4036.5687 3013.19237 4035.7481 3013.15443 4034.9275 3013.19237 4034.11391 3013.30586 4033.31426 3013.49393 4032.53537 3013.75499 4031.78389 3014.0868 4031.06624 3014.48653 4030.38853 3014.95078 4029.75654 3015.47557 4029.17567 3016.05644 4028.65088 3016.68843 4028.18663 3017.36614 4027.7869 3018.08379 4027.45509 3018.83527 4027.19403 3019.61416 4027.00596 3020.41381 4026.89247 3021.2274 4026.85453 3022.048 4026.89247 3022.8686 4027.00596 3023.68219 4027.19403 3024.48184 4027.45509 3025.26073 4027.7869 3026.01221 4028.18663 3026.72986 4028.65088 3027.40757 4029.17567 3028.03956 4029.75654 3028.62043 4030.38853 3029.14522 4031.06624 3029.60947 4031.78389 3030.0092 4032.53537 3030.34101 4033.31426 3030.60207 4034.11391 3030.79014 4034.9275 3030.90363 4035.7481 3030.94157 Z M 4397.9522 3393.14557 L 4398.7728 3393.10763 4399.58639 3392.99414 4400.38604 3392.80607 4401.16493 3392.54501 4401.91641 3392.2132 4402.63406 3391.81347 4403.31177 3391.34922 4403.94376 3390.82443 4404.52463 3390.24356 4405.04942 3389.61157 4405.51367 3388.93386 4405.9134 3388.21621 4406.24521 3387.46473 4406.50627 3386.68584 4406.69434 3385.88619 4406.80783 3385.0726 4406.84577 3384.252 4406.80783 3383.4314 4406.69434 3382.61781 4406.50627 3381.81816 4406.24521 3381.03927 4405.9134 3380.28779 4405.51367 3379.57014 4405.04942 3378.89243 4404.52463 3378.26044 4403.94376 3377.67957 4403.31177 3377.15478 4402.63406 3376.69053 4401.91641 3376.2908 4401.16493 3375.95899 4400.38604 3375.69793 4399.58639 3375.50986 4398.7728 3375.39637 4397.9522 3375.35843 4397.1316 3375.39637 4396.31801 3375.50986 4395.51836 3375.69793 4394.73947 3375.95899 4393.98799 3376.2908 4393.27034 3376.69053 4392.59263 3377.15478 4391.96064 3377.67957 4391.37977 3378.26044 4390.85498 3378.89243 4390.39073 3379.57014 4389.991 3380.28779 4389.65919 3381.03927 4389.39813 3381.81816 4389.21006 3382.61781 4389.09657 3383.4314 4389.05863 3384.252 4389.09657 3385.0726 4389.21006 3385.88619 4389.39813 3386.68584 4389.65919 3387.46473 4389.991 3388.21621 4390.39073 3388.93386 4390.85498 3389.61157 4391.37977 3390.24356 4391.96064 3390.82443 4392.59263 3391.34922 4393.27034 3391.81347 4393.98799 3392.2132 4394.73947 3392.54501 4395.51836 3392.80607 4396.31801 3392.99414 4397.1316 3393.10763 4397.9522 3393.14557 Z M 4397.9521 3030.94157 L 4398.7727 3030.90363 4399.58629 3030.79014 4400.38594 3030.60207 4401.16483 3030.34101 4401.91631 3030.0092 4402.63396 3029.60947 4403.31167 3029.14522 4403.94366 3028.62043 4404.52453 3028.03956 4405.04932 3027.40757 4405.51357 3026.72986 4405.9133 3026.01221 4406.24511 3025.26073 4406.50617 3024.48184 4406.69424 3023.68219 4406.80773 3022.8686 4406.84567 3022.048 4406.80773 3021.2274 4406.69424 3020.41381 4406.50617 3019.61416 4406.24511 3018.83527 4405.9133 3018.08379 4405.51357 3017.36614 4405.04932 3016.68843 4404.52453 3016.05644 4403.94366 3015.47557 4403.31167 3014.95078 4402.63396 3014.48653 4401.91631 3014.0868 4401.16483 3013.75499 4400.38594 3013.49393 4399.58629 3013.30586 4398.7727 3013.19237 4397.9521 3013.15443 4397.1315 3013.19237 4396.31791 3013.30586 4395.51826 3013.49393 4394.73937 3013.75499 4393.98789 3014.0868 4393.27024 3014.48653 4392.59253 3014.95078 4391.96054 3015.47557 4391.37967 3016.05644 4390.85488 3016.68843 4390.39063 3017.36614 4389.9909 3018.08379 4389.65909 3018.83527 4389.39803 3019.61416 4389.20996 3020.41381 4389.09647 3021.2274 4389.05853 3022.048 4389.09647 3022.8686 4389.20996 3023.68219 4389.39803 3024.48184 4389.65909 3025.26073 4389.9909 3026.01221 4390.39063 3026.72986 4390.85488 3027.40757 4391.37967 3028.03956 4391.96054 3028.62043 4392.59253 3029.14522 4393.27024 3029.60947 4393.98789 3030.0092 4394.73937 3030.34101 4395.51826 3030.60207 4396.31791 3030.79014 4397.1315 3030.90363 4397.9521 3030.94157 Z M 4182.7963 3284.03767 L 4183.50715 3283.98265 4184.20858 3283.85483 4184.89315 3283.65556 4185.55359 3283.38696 4186.18292 3283.05188 4186.77447 3282.65386 4187.32195 3282.19713 4187.81957 3281.68653 4188.26205 3281.12747 4188.6447 3280.52588 4188.96347 3279.88813 4189.21497 3279.22099 4189.39655 3278.53152 4189.50627 3277.82703 4189.54297 3277.115 4189.50627 3276.40297 4189.39655 3275.69848 4189.21497 3275.00901 4188.96347 3274.34187 4188.6447 3273.70412 4188.26205 3273.10253 4187.81957 3272.54347 4187.32195 3272.03287 4186.77447 3271.57614 4186.18292 3271.17812 4185.55359 3270.84304 4184.89315 3270.57444 4184.20858 3270.37517 4183.50715 3270.24735 4182.7963 3270.19233 4182.08356 3270.21068 4181.37649 3270.30223 4180.68257 3270.46599 4180.00917 3270.70024 4179.36343 3271.00248 4178.75218 3271.36951 4178.18191 3271.79745 4177.65867 3272.28176 4177.18799 3272.8173 4176.77488 3273.3984 4176.4237 3274.01889 4176.13819 3274.6722 4175.92136 3275.35141 4175.77552 3276.04931 4175.70221 3276.75851 4175.70221 3277.47149 4175.77552 3278.18069 4175.92136 3278.87859 4176.13819 3279.5578 4176.4237 3280.21111 4176.77488 3280.8316 4177.18799 3281.4127 4177.65867 3281.94824 4178.18191 3282.43255 4178.75218 3282.86049 4179.36343 3283.22752 4180.00917 3283.52976 4180.68257 3283.76401 4181.37649 3283.92777 4182.08356 3284.01932 4182.7963 3284.03767 Z M 4375.7093 3284.03767 L 4376.42015 3283.98265 4377.12158 3283.85483 4377.80615 3283.65556 4378.46659 3283.38696 4379.09592 3283.05188 4379.68747 3282.65386 4380.23495 3282.19713 4380.73257 3281.68653 4381.17505 3281.12747 4381.5577 3280.52588 4381.87647 3279.88813 4382.12797 3279.22099 4382.30955 3278.53152 4382.41927 3277.82703 4382.45597 3277.115 4382.41927 3276.40297 4382.30955 3275.69848 4382.12797 3275.00901 4381.87647 3274.34187 4381.5577 3273.70412 4381.17505 3273.10253 4380.73257 3272.54347 4380.23495 3272.03287 4379.68747 3271.57614 4379.09592 3271.17812 4378.46659 3270.84304 4377.80615 3270.57444 4377.12158 3270.37517 4376.42015 3270.24735 4375.7093 3270.19233 4374.99656 3270.21068 4374.28949 3270.30223 4373.59557 3270.46599 4372.92217 3270.70024 4372.27643 3271.00248 4371.66518 3271.36951 4371.09491 3271.79745 4370.57167 3272.28176 4370.10099 3272.8173 4369.68788 3273.3984 4369.3367 3274.01889 4369.05119 3274.6722 4368.83436 3275.35141 4368.68852 3276.04931 4368.61521 3276.75851 4368.61521 3277.47149 4368.68852 3278.18069 4368.83436 3278.87859 4369.05119 3279.5578 4369.3367 3280.21111 4369.68788 3280.8316 4370.10099 3281.4127 4370.57167 3281.94824 4371.09491 3282.43255 4371.66518 3282.86049 4372.27643 3283.22752 4372.92217 3283.52976 4373.59557 3283.76401 4374.28949 3283.92777 4374.99656 3284.01932 4375.7093 3284.03767 Z M 4182.7963 3055.69167 L 4183.50715 3055.63665 4184.20858 3055.50883 4184.89315 3055.30956 4185.55359 3055.04096 4186.18292 3054.70588 4186.77447 3054.30786 4187.32195 3053.85113 4187.81957 3053.34053 4188.26205 3052.78147 4188.6447 3052.17988 4188.96347 3051.54213 4189.21497 3050.87499 4189.39655 3050.18552 4189.50627 3049.48103 4189.54297 3048.769 4189.50627 3048.05697 4189.39655 3047.35248 4189.21497 3046.66301 4188.96347 3045.99587 4188.6447 3045.35812 4188.26205 3044.75653 4187.81957 3044.19747 4187.32195 3043.68687 4186.77447 3043.23014 4186.18292 3042.83212 4185.55359 3042.49704 4184.89315 3042.22844 4184.20858 3042.02917 4183.50715 3041.90135 4182.7963 3041.84633 4182.08356 3041.86468 4181.37649 3041.95623 4180.68257 3042.11999 4180.00917 3042.35424 4179.36343 3042.65648 4178.75218 3043.02351 4178.18191 3043.45145 4177.65867 3043.93576 4177.18799 3044.4713 4176.77488 3045.0524 4176.4237 3045.67289 4176.13819 3046.3262 4175.92136 3047.00541 4175.77552 3047.70331 4175.70221 3048.41251 4175.70221 3049.12549 4175.77552 3049.83469 4175.92136 3050.53259 4176.13819 3051.2118 4176.4237 3051.86511 4176.77488 3052.4856 4177.18799 3053.0667 4177.65867 3053.60224 4178.18191 3054.08655 4178.75218 3054.51449 4179.36343 3054.88152 4180.00917 3055.18376 4180.68257 3055.41801 4181.37649 3055.58177 4182.08356 3055.67332 4182.7963 3055.69167 Z M 4375.7093 3055.69167 L 4376.42015 3055.63665 4377.12158 3055.50883 4377.80615 3055.30956 4378.46659 3055.04096 4379.09592 3054.70588 4379.68747 3054.30786 4380.23495 3053.85113 4380.73257 3053.34053 4381.17505 3052.78147 4381.5577 3052.17988 4381.87647 3051.54213 4382.12797 3050.87499 4382.30955 3050.18552 4382.41927 3049.48103 4382.45597 3048.769 4382.41927 3048.05697 4382.30955 3047.35248 4382.12797 3046.66301 4381.87647 3045.99587 4381.5577 3045.35812 4381.17505 3044.75653 4380.73257 3044.19747 4380.23495 3043.68687 4379.68747 3043.23014 4379.09592 3042.83212 4378.46659 3042.49704 4377.80615 3042.22844 4377.12158 3042.02917 4376.42015 3041.90135 4375.7093 3041.84633 4374.99656 3041.86468 4374.28949 3041.95623 4373.59557 3042.11999 4372.92217 3042.35424 4372.27643 3042.65648 4371.66518 3043.02351 4371.09491 3043.45145 4370.57167 3043.93576 4370.10099 3044.4713 4369.68788 3045.0524 4369.3367 3045.67289 4369.05119 3046.3262 4368.83436 3047.00541 4368.68852 3047.70331 4368.61521 3048.41251 4368.61521 3049.12549 4368.68852 3049.83469 4368.83436 3050.53259 4369.05119 3051.2118 4369.3367 3051.86511 4369.68788 3052.4856 4370.10099 3053.0667 4370.57167 3053.60224 4371.09491 3054.08655 4371.66518 3054.51449 4372.27643 3054.88152 4372.92217 3055.18376 4373.59557 3055.41801 4374.28949 3055.58177 4374.99656 3055.67332 4375.7093 3055.69167 Z M 4041.67369 3365.39126 L 4041.92256 3365.4193 4048.07764 3365.4193 4048.32651 3365.39126 4048.54156 3365.31601 4048.73448 3365.19479 4048.89559 3365.03368 4049.01681 3364.84076 4049.09206 3364.62571 4049.1201 3364.37684 4049.1201 3358.22176 4049.09206 3357.97289 4049.01681 3357.75784 4048.89559 3357.56492 4048.73448 3357.40381 4048.54156 3357.28259 4048.32651 3357.20734 4048.07764 3357.1793 4041.92256 3357.1793 4041.67369 3357.20734 4041.45864 3357.28259 4041.26572 3357.40381 4041.10461 3357.56492 4040.98339 3357.75784 4040.90814 3357.97289 4040.8801 3358.22176 4040.8801 3364.37684 4040.90814 3364.62571 4040.98339 3364.84076 4041.10461 3365.03368 4041.26572 3365.19479 4041.45864 3365.31601 4041.67369 3365.39126 Z M 4044.46244 3355.3832 L 4045.0001 3355.41844 4045.53776 3355.3832 4046.06621 3355.27809 4046.57643 3355.10489 4047.05967 3354.86658 4047.50767 3354.56723 4047.91277 3354.21197 4048.26803 3353.80687 4048.56738 3353.35887 4048.80569 3352.87563 4048.97889 3352.36541 4049.084 3351.83696 4049.11924 3351.2993 4049.084 3350.76164 4048.97889 3350.23319 4048.80569 3349.72297 4048.56738 3349.23973 4048.26803 3348.79173 4047.91277 3348.38663 4047.50767 3348.03137 4047.05967 3347.73202 4046.57643 3347.49371 4046.06621 3347.32051 4045.53776 3347.2154 4045.0001 3347.18016 4044.46244 3347.2154 4043.93399 3347.32051 4043.42377 3347.49371 4042.94053 3347.73202 4042.49253 3348.03137 4042.08743 3348.38663 4041.73217 3348.79173 4041.43282 3349.23973 4041.19451 3349.72297 4041.02131 3350.23319 4040.9162 3350.76164 4040.88096 3351.2993 4040.9162 3351.83696 4041.02131 3352.36541 4041.19451 3352.87563 4041.43282 3353.35887 4041.73217 3353.80687 4042.08743 3354.21197 4042.49253 3354.56723 4042.94053 3354.86658 4043.42377 3355.10489 4043.93399 3355.27809 4044.46244 3355.3832 Z M 4035.0001 3355.41844 L 4035.53776 3355.3832 4036.06621 3355.27809 4036.57643 3355.10489 4037.05967 3354.86658 4037.50767 3354.56723 4037.91277 3354.21197 4038.26803 3353.80687 4038.56738 3353.35887 4038.80569 3352.87563 4038.97889 3352.36541 4039.084 3351.83696 4039.11924 3351.2993 4039.084 3350.76164 4038.97889 3350.23319 4038.80569 3349.72297 4038.56738 3349.23973 4038.26803 3348.79173 4037.91277 3348.38663 4037.50767 3348.03137 4037.05967 3347.73202 4036.57643 3347.49371 4036.06621 3347.32051 4035.53776 3347.2154 4035.0001 3347.18016 4034.46244 3347.2154 4033.93399 3347.32051 4033.42377 3347.49371 4032.94053 3347.73202 4032.49253 3348.03137 4032.08743 3348.38663 4031.73217 3348.79173 4031.43282 3349.23973 4031.19451 3349.72297 4031.02131 3350.23319 4030.9162 3350.76164 4030.88096 3351.2993 4030.9162 3351.83696 4031.02131 3352.36541 4031.19451 3352.87563 4031.43282 3353.35887 4031.73217 3353.80687 4032.08743 3354.21197 4032.49253 3354.56723 4032.94053 3354.86658 4033.42377 3355.10489 4033.93399 3355.27809 4034.46244 3355.3832 4035.0001 3355.41844 Z M 4035.0001 3365.41844 L 4035.53776 3365.3832 4036.06621 3365.27809 4036.57643 3365.10489 4037.05967 3364.86658 4037.50767 3364.56723 4037.91277 3364.21197 4038.26803 3363.80687 4038.56738 3363.35887 4038.80569 3362.87563 4038.97889 3362.36541 4039.084 3361.83696 4039.11924 3361.2993 4039.084 3360.76164 4038.97889 3360.23319 4038.80569 3359.72297 4038.56738 3359.23973 4038.26803 3358.79173 4037.91277 3358.38663 4037.50767 3358.03137 4037.05967 3357.73202 4036.57643 3357.49371 4036.06621 3357.32051 4035.53776 3357.2154 4035.0001 3357.18016 4034.46244 3357.2154 4033.93399 3357.32051 4033.42377 3357.49371 4032.94053 3357.73202 4032.49253 3358.03137 4032.08743 3358.38663 4031.73217 3358.79173 4031.43282 3359.23973 4031.19451 3359.72297 4031.02131 3360.23319 4030.9162 3360.76164 4030.88096 3361.2993 4030.9162 3361.83696 4031.02131 3362.36541 4031.19451 3362.87563 4031.43282 3363.35887 4031.73217 3363.80687 4032.08743 3364.21197 4032.49253 3364.56723 4032.94053 3364.86658 4033.42377 3365.10489 4033.93399 3365.27809 4034.46244 3365.3832 4035.0001 3365.41844 Z M 4036.8001 3334.99459 L 4037.05967 3334.86658 4037.50767 3334.56723 4037.91277 3334.21197 4038.26803 3333.80687 4038.56738 3333.35887 4038.69539 3333.0993 4036.8001 3333.0993 4036.8001 3334.99459 Z M 4046.8001 3327.60401 L 4046.8001 3329.4993 4048.69539 3329.4993 4048.56738 3329.23973 4048.26803 3328.79173 4047.91277 3328.38663 4047.50767 3328.03137 4047.05967 3327.73202 4046.8001 3327.60401 Z M 4036.8001 3344.99459 L 4037.05967 3344.86658 4037.50767 3344.56723 4037.91277 3344.21197 4038.26803 3343.80687 4038.56738 3343.35887 4038.69539 3343.0993 4036.8001 3343.0993 4036.8001 3344.99459 Z M 4046.8001 3334.99459 L 4047.05967 3334.86658 4047.50767 3334.56723 4047.91277 3334.21197 4048.26803 3333.80687 4048.56738 3333.35887 4048.69539 3333.0993 4046.8001 3333.0993 4046.8001 3334.99459 Z M 4048.69539 3339.4993 L 4048.56738 3339.23973 4048.26803 3338.79173 4047.91277 3338.38663 4047.50767 3338.03137 4047.05967 3337.73202 4046.8001 3337.60401 4046.8001 3339.4993 4048.69539 3339.4993 Z M 4033.2001 3339.4993 L 4033.2001 3337.60401 4032.94053 3337.73202 4032.49253 3338.03137 4032.08743 3338.38663 4031.73217 3338.79173 4031.43282 3339.23973 4031.30481 3339.4993 4033.2001 3339.4993 Z M 4046.8001 3343.0993 L 4046.8001 3344.99459 4047.05967 3344.86658 4047.50767 3344.56723 4047.91277 3344.21197 4048.26803 3343.80687 4048.56738 3343.35887 4048.69539 3343.0993 4046.8001 3343.0993 Z M 4032.94053 3344.86658 L 4033.2001 3344.99459 4033.2001 3343.0993 4031.30481 3343.0993 4031.43282 3343.35887 4031.73217 3343.80687 4032.08743 3344.21197 4032.49253 3344.56723 4032.94053 3344.86658 Z M 4043.2001 3344.99459 L 4043.2001 3343.0993 4041.30481 3343.0993 4041.43282 3343.35887 4041.73217 3343.80687 4042.08743 3344.21197 4042.49253 3344.56723 4042.94053 3344.86658 4043.2001 3344.99459 Z M 4033.2001 3334.99459 L 4033.2001 3333.0993 4031.30481 3333.0993 4031.43282 3333.35887 4031.73217 3333.80687 4032.08743 3334.21197 4032.49253 3334.56723 4032.94053 3334.86658 4033.2001 3334.99459 Z M 4036.8001 3337.60401 L 4036.8001 3339.4993 4038.69539 3339.4993 4038.56738 3339.23973 4038.26803 3338.79173 4037.91277 3338.38663 4037.50767 3338.03137 4037.05967 3337.73202 4036.8001 3337.60401 Z M 4043.2001 3339.4993 L 4043.2001 3337.60401 4042.94053 3337.73202 4042.49253 3338.03137 4042.08743 3338.38663 4041.73217 3338.79173 4041.43282 3339.23973 4041.30481 3339.4993 4043.2001 3339.4993 Z M 4043.2001 3334.99459 L 4043.2001 3333.0993 4041.30481 3333.0993 4041.43282 3333.35887 4041.73217 3333.80687 4042.08743 3334.21197 4042.49253 3334.56723 4042.94053 3334.86658 4043.2001 3334.99459 Z M 4033.2001 3329.4993 L 4033.2001 3327.60401 4032.94053 3327.73202 4032.49253 3328.03137 4032.08743 3328.38663 4031.73217 3328.79173 4031.43282 3329.23973 4031.30481 3329.4993 4033.2001 3329.4993 Z M 4038.69539 3329.4993 L 4038.56738 3329.23973 4038.26803 3328.79173 4037.91277 3328.38663 4037.50767 3328.03137 4037.05967 3327.73202 4036.8001 3327.60401 4036.8001 3329.4993 4038.69539 3329.4993 Z M 4041.43282 3329.23973 L 4041.30481 3329.4993 4043.2001 3329.4993 4043.2001 3327.60401 4042.94053 3327.73202 4042.49253 3328.03137 4042.08743 3328.38663 4041.73217 3328.79173 4041.43282 3329.23973 Z " stroke-width="0" layerid="1" attachedcopperid="gge127872" c_shapetype="line" id="gge127872_0" class=""></path><g c_partid="part_pad" c_etype="pinpart" c_origin="4035.748,3384.252" layerid="11" number="" net="" plated ="Y"  id="gge1576" locked="0" c_rotation="0" c_width="15.748" c_height="15.748" title="" c_shape="ELLIPSE" pasteexpansion="0" solderexpansion="0.2"><ellipse c_etype="pad_shell" cx="4035.748" cy="3384.252" rx="7.874" ry="7.874" layerid="11" stroke-width="0"/><circle c_etype="pad_hole" cx="4035.7482" cy="3384.252" r="6.2992" layerid="11" stroke-width="0"/></g><g c_partid="part_pad" c_etype="pinpart" c_origin="4397.952,3384.252" layerid="11" number="" net="" plated ="Y"  id="gge1648" locked="0" c_rotation="0" c_width="15.748" c_height="15.748" title="" c_shape="ELLIPSE" pasteexpansion="0" solderexpansion="0.2"><ellipse c_etype="pad_shell" cx="4397.952" cy="3384.252" rx="7.874" ry="7.874" layerid="11" stroke-width="0"/><circle c_etype="pad_hole" cx="4397.9522" cy="3384.252" r="6.2992" layerid="11" stroke-width="0"/></g><g c_partid="part_pad" c_etype="pinpart" c_origin="4397.952,3022.048" layerid="11" number="" net="" plated ="Y"  id="gge1666" locked="0" c_rotation="180" c_width="15.748" c_height="15.748" title="" c_shape="ELLIPSE" pasteexpansion="0" solderexpansion="0.2"><ellipse c_etype="pad_shell" cx="4397.952" cy="3022.048" rx="7.874" ry="7.874" layerid="11" stroke-width="0"/><circle c_etype="pad_hole" cx="4397.9521" cy="3022.048" r="6.2992" layerid="11" stroke-width="0"/></g><g c_partid="part_pad" c_etype="pinpart" c_origin="4035.748,3022.048" layerid="11" number="" net="" plated ="Y"  id="gge1684" locked="0" c_rotation="0" c_width="15.748" c_height="15.748" title="" c_shape="ELLIPSE" pasteexpansion="0" solderexpansion="0.2"><ellipse c_etype="pad_shell" cx="4035.748" cy="3022.048" rx="7.874" ry="7.874" layerid="11" stroke-width="0"/><circle c_etype="pad_hole" cx="4035.7481" cy="3022.048" r="6.2992" layerid="11" stroke-width="0"/></g><g c_partid="part_pad" c_etype="pinpart" c_origin="4045,3361.299" layerid="11" number="1" net="+5V" plated ="Y"  id="gge45795" locked="0" c_rotation="90" c_width="6.2" c_height="6.2" title="+5V" c_shape="RECT" pasteexpansion="0" solderexpansion="0.2"><polygon  c_etype="pad_shell" points="4041.9001 3364.3993 4041.9001 3358.1993 4048.1001 3358.1993 4048.1001 3364.3993" layerid="11" stroke-width="0" /><circle c_etype="pad_hole" cx="4045.0001" cy="3361.2993" r="1.75" layerid="11" stroke-width="0"/></g><g c_partid="part_pad" c_etype="pinpart" c_origin="4035,3361.299" layerid="11" number="2" net="+5V" plated ="Y"  id="gge45810" locked="0" c_rotation="90" c_width="6.2" c_height="6.2" title="+5V" c_shape="ELLIPSE" pasteexpansion="0" solderexpansion="0.2"><ellipse c_etype="pad_shell" cx="4035" cy="3361.299" rx="3.1" ry="3.1" layerid="11" stroke-width="0"/><circle c_etype="pad_hole" cx="4035.0001" cy="3361.2993" r="1.75" layerid="11" stroke-width="0"/></g><g c_partid="part_pad" c_etype="pinpart" c_origin="4045,3351.299" layerid="11" number="3" net="3V3" plated ="Y"  id="gge45825" locked="0" c_rotation="90" c_width="6.2" c_height="6.2" title="3V3" c_shape="ELLIPSE" pasteexpansion="0" solderexpansion="0.2"><ellipse c_etype="pad_shell" cx="4045" cy="3351.299" rx="3.1" ry="3.1" layerid="11" stroke-width="0"/><circle c_etype="pad_hole" cx="4045.0001" cy="3351.2993" r="1.75" layerid="11" stroke-width="0"/></g><g c_partid="part_pad" c_etype="pinpart" c_origin="4035,3351.299" layerid="11" number="4" net="3V3" plated ="Y"  id="gge45840" locked="0" c_rotation="90" c_width="6.2" c_height="6.2" title="3V3" c_shape="ELLIPSE" pasteexpansion="0" solderexpansion="0.2"><ellipse c_etype="pad_shell" cx="4035" cy="3351.299" rx="3.1" ry="3.1" layerid="11" stroke-width="0"/><circle c_etype="pad_hole" cx="4035.0001" cy="3351.2993" r="1.75" layerid="11" stroke-width="0"/></g><g c_partid="part_pad" c_etype="pinpart" c_origin="4045,3341.299" layerid="11" number="5" net="GND" plated ="Y"  id="gge45855" locked="0" c_rotation="90" c_width="6.2" c_height="6.2" title="GND" c_shape="ELLIPSE" pasteexpansion="0" solderexpansion="0.2"><ellipse c_etype="pad_shell" cx="4045" cy="3341.299" rx="3.1" ry="3.1" layerid="11" stroke-width="0"/><circle c_etype="pad_hole" cx="4045.0001" cy="3341.2993" r="1.75" layerid="11" stroke-width="0"/></g><g c_partid="part_pad" c_etype="pinpart" c_origin="4035,3341.299" layerid="11" number="6" net="GND" plated ="Y"  id="gge45870" locked="0" c_rotation="90" c_width="6.2" c_height="6.2" title="GND" c_shape="ELLIPSE" pasteexpansion="0" solderexpansion="0.2"><ellipse c_etype="pad_shell" cx="4035" cy="3341.299" rx="3.1" ry="3.1" layerid="11" stroke-width="0"/><circle c_etype="pad_hole" cx="4035.0001" cy="3341.2993" r="1.75" layerid="11" stroke-width="0"/></g><g c_partid="part_pad" c_etype="pinpart" c_origin="4045,3331.299" layerid="11" number="7" net="GND" plated ="Y"  id="gge45885" locked="0" c_rotation="90" c_width="6.2" c_height="6.2" title="GND" c_shape="ELLIPSE" pasteexpansion="0" solderexpansion="0.2"><ellipse c_etype="pad_shell" cx="4045" cy="3331.299" rx="3.1" ry="3.1" layerid="11" stroke-width="0"/><circle c_etype="pad_hole" cx="4045.0001" cy="3331.2993" r="1.75" layerid="11" stroke-width="0"/></g><g c_partid="part_pad" c_etype="pinpart" c_origin="4035,3331.299" layerid="11" number="8" net="GND" plated ="Y"  id="gge45900" locked="0" c_rotation="90" c_width="6.2" c_height="6.2" title="GND" c_shape="ELLIPSE" pasteexpansion="0" solderexpansion="0.2"><ellipse c_etype="pad_shell" cx="4035" cy="3331.299" rx="3.1" ry="3.1" layerid="11" stroke-width="0"/><circle c_etype="pad_hole" cx="4035.0001" cy="3331.2993" r="1.75" layerid="11" stroke-width="0"/></g><g c_partid="part_hole" c_etype="pinpart" c_shapetype="group" c_origin="4182.618,3277.115" layerid="11" id="gge127805" locked="0" ><circle cx="4182.618" cy="3277.115" r="5.9055"  stroke-width="0" /></g><g c_partid="part_hole" c_etype="pinpart" c_shapetype="group" c_origin="4182.618,3048.769" layerid="11" id="gge127817" locked="0" ><circle cx="4182.618" cy="3048.769" r="5.9055"  stroke-width="0" /></g><g c_partid="part_hole" c_etype="pinpart" c_shapetype="group" c_origin="4375.531,3277.115" layerid="11" id="gge127829" locked="0" ><circle cx="4375.531" cy="3277.115" r="5.9055"  stroke-width="0" /></g><g c_partid="part_hole" c_etype="pinpart" c_shapetype="group" c_origin="4375.531,3048.769" layerid="11" id="gge127841" locked="0" ><circle cx="4375.531" cy="3048.769" r="5.9055"  stroke-width="0" /></g><polyline points="4411.7316 3392.126 4411.7316 3014.1742" stroke-width="1.5748"  stroke-linecap="round" fill="none" layerid="3" net="S$1703" id="gge40778" locked="0" /><polyline points="4021.9686 3392.126 4021.9686 3014.174" stroke-width="1.5748"  stroke-linecap="round" fill="none" layerid="3" net="S$1564" id="gge4330" locked="0" /><polyline points="4405.8261 3398.0315 4027.8741 3398.0315" stroke-width="1.5748"  stroke-linecap="round" fill="none" layerid="3" net="S$1553" id="gge40775" locked="0" /><polyline points="4405.8261 3008.2685 4027.8741 3008.2685" stroke-width="1.5748"  stroke-linecap="round" fill="none" layerid="3" net="S$1707" id="gge4321" locked="0" /><polyline points="4168.8387 3046.7997 4168.8387 3357.8227" stroke-width="0.7874"  stroke-linecap="round" fill="none" layerid="3" net="" id="gge127781" locked="0" /><polyline points="4377.4996 3034.9887 4180.6497 3034.9887" stroke-width="0.7874"  stroke-linecap="round" fill="none" layerid="3" net="" id="gge127784" locked="0" /><polyline points="4389.3106 3046.7997 4389.3106 3357.8227" stroke-width="0.7874"  stroke-linecap="round" fill="none" layerid="3" net="" id="gge127787" locked="0" /><polyline points="4377.4996 3369.6337 4180.6497 3369.6337" stroke-width="0.7874"  stroke-linecap="round" fill="none" layerid="3" net="" id="gge127790" locked="0" /><polyline points="4030.0001 3366.2993 4050.0001 3366.2993 4050.0001 3326.2993 4030.0001 3326.2993 4030.0001 3366.2993" stroke-width="0.8"  stroke-linecap="round" fill="none" layerid="3" net="" id="gge45756" locked="0" /><g c_partid="part_pcbtext" c_etype="pinpart" c_origin="4255,3026.3" c_rotation="0" c_mirror="0" id="gge3565" locked="0" layerid="3" c_shapetype="group" ><path c_fontsize="5.1181" c_fontfamily="" c_text="Raspberry Pi 4" d="M 4254.9998 3021.14 L 4254.9998 3026.02 M 4254.9998 3021.14 L 4257.0898 3021.14 L 4257.7898 3021.37 L 4258.0198 3021.6 L 4258.2598 3022.07 L 4258.2598 3022.53 L 4258.0198 3023 L 4257.7898 3023.23 L 4257.0898 3023.46 L 4254.9998 3023.46 M 4256.6298 3023.46 L 4258.2598 3026.02 M 4262.5798 3022.76 L 4262.5798 3026.02 M 4262.5798 3023.46 L 4262.1198 3023 L 4261.6498 3022.76 L 4260.9598 3022.76 L 4260.4898 3023 L 4260.0198 3023.46 L 4259.7898 3024.16 L 4259.7898 3024.62 L 4260.0198 3025.32 L 4260.4898 3025.79 L 4260.9598 3026.02 L 4261.6498 3026.02 L 4262.1198 3025.79 L 4262.5798 3025.32 M 4266.6798 3023.46 L 4266.4498 3023 L 4265.7498 3022.76 L 4265.0498 3022.76 L 4264.3498 3023 L 4264.1198 3023.46 L 4264.3498 3023.93 L 4264.8198 3024.16 L 4265.9798 3024.39 L 4266.4498 3024.62 L 4266.6798 3025.09 L 4266.6798 3025.32 L 4266.4498 3025.79 L 4265.7498 3026.02 L 4265.0498 3026.02 L 4264.3498 3025.79 L 4264.1198 3025.32 M 4268.2098 3022.76 L 4268.2098 3027.65 M 4268.2098 3023.46 L 4268.6798 3023 L 4269.1398 3022.76 L 4269.8398 3022.76 L 4270.3098 3023 L 4270.7698 3023.46 L 4271.0098 3024.16 L 4271.0098 3024.62 L 4270.7698 3025.32 L 4270.3098 3025.79 L 4269.8398 3026.02 L 4269.1398 3026.02 L 4268.6798 3025.79 L 4268.2098 3025.32 M 4272.5398 3021.14 L 4272.5398 3026.02 M 4272.5398 3023.46 L 4273.0098 3023 L 4273.4698 3022.76 L 4274.1698 3022.76 L 4274.6298 3023 L 4275.0998 3023.46 L 4275.3298 3024.16 L 4275.3298 3024.62 L 4275.0998 3025.32 L 4274.6298 3025.79 L 4274.1698 3026.02 L 4273.4698 3026.02 L 4273.0098 3025.79 L 4272.5398 3025.32 M 4276.8698 3024.16 L 4279.6598 3024.16 L 4279.6598 3023.69 L 4279.4298 3023.23 L 4279.1898 3023 L 4278.7298 3022.76 L 4278.0298 3022.76 L 4277.5698 3023 L 4277.0998 3023.46 L 4276.8698 3024.16 L 4276.8698 3024.62 L 4277.0998 3025.32 L 4277.5698 3025.79 L 4278.0298 3026.02 L 4278.7298 3026.02 L 4279.1898 3025.79 L 4279.6598 3025.32 M 4281.1998 3022.76 L 4281.1998 3026.02 M 4281.1998 3024.16 L 4281.4298 3023.46 L 4281.8898 3023 L 4282.3598 3022.76 L 4283.0598 3022.76 M 4284.5898 3022.76 L 4284.5898 3026.02 M 4284.5898 3024.16 L 4284.8198 3023.46 L 4285.2898 3023 L 4285.7498 3022.76 L 4286.4498 3022.76 M 4288.2198 3022.76 L 4289.6198 3026.02 M 4291.0098 3022.76 L 4289.6198 3026.02 L 4289.1498 3026.95 L 4288.6898 3027.42 L 4288.2198 3027.65 L 4287.9898 3027.65 M 4296.1298 3021.14 L 4296.1298 3026.02 M 4296.1298 3021.14 L 4298.2198 3021.14 L 4298.9198 3021.37 L 4299.1598 3021.6 L 4299.3898 3022.07 L 4299.3898 3022.76 L 4299.1598 3023.23 L 4298.9198 3023.46 L 4298.2198 3023.69 L 4296.1298 3023.69 M 4300.9198 3021.14 L 4301.1598 3021.37 L 4301.3898 3021.14 L 4301.1598 3020.9 L 4300.9198 3021.14 M 4301.1598 3022.76 L 4301.1598 3026.02 M 4308.8298 3021.14 L 4306.5098 3024.39 L 4309.9998 3024.39 M 4308.8298 3021.14 L 4308.8298 3026.02" fill="none"  stroke-width="0.8"  /></g><g c_partid="part_pcbtext" c_etype="pinpart" c_origin="4050,3391.299" c_rotation="0" c_mirror="0" id="gge4642" locked="0" layerid="3" c_shapetype="group" ><path c_fontsize="7.874" c_fontfamily="NotoSerifCJKsc-Medium" c_text="M01-CTMA-TIC-ELECTRÓNICA - SISEMB" d="M4056.56 3386.14L4056.56 3385.87L4055.08 3385.87L4053.42 3390.13L4051.69 3385.87L4050.29 3385.87L4050.29 3386.14L4050.99 3386.22L4050.99 3390.64L4050.29 3390.73L4050.29 3391L4052.01 3391L4052.01 3390.73L4051.34 3390.64L4051.34 3388.21C4051.34 3388.17 4051.32 3387.28 4051.30 3386.60L4053.09 3391L4053.42 3391L4055.15 3386.59L4055.14 3388.65C4055.14 3389.32 4055.14 3389.99 4055.13 3390.66L4054.47 3390.73L4054.47 3391L4056.55 3391L4056.55 3390.73L4055.84 3390.66C4055.83 3389.98 4055.83 3389.30 4055.83 3388.63L4055.83 3388.25C4055.83 3387.56 4055.83 3386.88 4055.84 3386.21ZM4057.90 3388.40C4057.90 3386.55 4058.35 3386.07 4058.84 3386.07C4059.31 3386.07 4059.75 3386.55 4059.75 3388.40C4059.75 3390.30 4059.31 3390.80 4058.84 3390.80C4058.35 3390.80 4057.90 3390.31 4057.90 3388.40ZM4058.84 3385.76C4058.02 3385.76 4057.22 3386.48 4057.22 3388.40C4057.22 3390.38 4058.02 3391.10 4058.84 3391.10C4059.65 3391.10 4060.44 3390.38 4060.44 3388.40C4060.44 3386.48 4059.65 3385.76 4058.84 3385.76ZM4063.08 3390.61C4063.07 3390.20 4063.06 3389.79 4063.06 3389.38L4063.06 3386.97L4063.09 3385.87L4062.99 3385.79L4061.41 3386.20L4061.41 3386.47L4062.43 3386.37L4062.43 3389.38C4062.43 3389.79 4062.42 3390.20 4062.42 3390.61L4061.33 3390.76L4061.33 3391L4064.15 3391L4064.15 3390.76ZM4064.90 3389.30L4066.69 3389.30L4066.69 3388.85L4064.90 3388.85ZM4071.17 3389.61L4070.98 3390.59C4070.68 3390.73 4070.38 3390.78 4070.10 3390.78C4069.00 3390.78 4068.23 3389.96 4068.23 3388.43C4068.23 3386.91 4069.07 3386.09 4070.13 3386.09C4070.38 3386.09 4070.64 3386.14 4070.91 3386.28L4071.10 3387.26L4071.52 3387.26L4071.50 3386.13C4071 3385.83 4070.48 3385.75 4070.04 3385.75C4068.54 3385.75 4067.44 3386.86 4067.44 3388.43C4067.44 3390.03 4068.49 3391.11 4070.04 3391.11C4070.59 3391.11 4071.10 3391 4071.57 3390.74L4071.59 3389.61ZM4075.80 3386.20L4076.01 3387.23L4076.38 3387.23L4076.33 3385.87L4072.13 3385.87L4072.06 3387.23L4072.45 3387.23L4072.66 3386.20L4073.86 3386.20C4073.88 3386.88 4073.88 3387.56 4073.88 3388.25L4073.88 3388.63C4073.88 3389.31 4073.88 3389.99 4073.86 3390.65L4073.07 3390.73L4073.07 3391L4075.38 3391L4075.38 3390.73L4074.59 3390.65C4074.58 3389.98 4074.58 3389.30 4074.58 3388.63L4074.58 3388.25C4074.58 3387.56 4074.58 3386.88 4074.59 3386.20ZM4083.10 3386.14L4083.10 3385.87L4081.62 3385.87L4079.96 3390.13L4078.23 3385.87L4076.83 3385.87L4076.83 3386.14L4077.53 3386.22L4077.52 3390.64L4076.83 3390.73L4076.83 3391L4078.55 3391L4078.55 3390.73L4077.88 3390.64L4077.88 3388.21C4077.88 3388.17 4077.85 3387.28 4077.84 3386.60L4079.63 3391L4079.96 3391L4081.69 3386.59L4081.68 3388.65C4081.68 3389.32 4081.68 3389.99 4081.67 3390.66L4081.00 3390.73L4081.00 3391L4083.09 3391L4083.09 3390.73L4082.38 3390.66C4082.37 3389.98 4082.37 3389.30 4082.37 3388.63L4082.37 3388.25C4082.37 3387.56 4082.37 3386.88 4082.38 3386.21ZM4085 3389.00L4085.78 3386.62L4086.58 3389.00ZM4087.86 3390.66L4086.20 3385.83L4085.76 3385.83L4084.13 3390.64L4083.50 3390.73L4083.50 3391L4085.21 3391L4085.21 3390.73L4084.46 3390.64L4084.90 3389.30L4086.68 3389.30L4087.13 3390.64L4086.37 3390.73L4086.37 3391L4088.46 3391L4088.46 3390.73ZM4088.61 3389.30L4090.40 3389.30L4090.40 3388.85L4088.61 3388.85ZM4094.25 3386.20L4094.47 3387.23L4094.84 3387.23L4094.79 3385.87L4090.59 3385.87L4090.52 3387.23L4090.91 3387.23L4091.12 3386.20L4092.32 3386.20C4092.34 3386.88 4092.34 3387.56 4092.34 3388.25L4092.34 3388.63C4092.34 3389.31 4092.34 3389.99 4092.32 3390.65L4091.53 3390.73L4091.53 3391L4093.84 3391L4093.84 3390.73L4093.05 3390.65C4093.04 3389.98 4093.04 3389.30 4093.04 3388.63L4093.04 3388.25C4093.04 3387.56 4093.04 3386.88 4093.05 3386.20ZM4097.49 3386.14L4097.49 3385.87L4095.34 3385.87L4095.34 3386.14L4096.05 3386.21C4096.07 3386.88 4096.07 3387.56 4096.07 3388.25L4096.07 3388.63C4096.07 3389.31 4096.07 3389.99 4096.05 3390.66L4095.34 3390.73L4095.34 3391L4097.49 3391L4097.49 3390.73L4096.78 3390.65C4096.77 3389.98 4096.77 3389.30 4096.77 3388.63L4096.77 3388.25C4096.77 3387.56 4096.77 3386.88 4096.78 3386.21ZM4101.76 3389.61L4101.58 3390.59C4101.28 3390.73 4100.98 3390.78 4100.69 3390.78C4099.59 3390.78 4098.82 3389.96 4098.82 3388.43C4098.82 3386.91 4099.66 3386.09 4100.72 3386.09C4100.98 3386.09 4101.24 3386.14 4101.51 3386.28L4101.69 3387.26L4102.11 3387.26L4102.10 3386.13C4101.60 3385.83 4101.08 3385.75 4100.64 3385.75C4099.14 3385.75 4098.03 3386.86 4098.03 3388.43C4098.03 3390.03 4099.09 3391.11 4100.64 3391.11C4101.18 3391.11 4101.69 3391 4102.17 3390.74L4102.18 3389.61ZM4102.81 3389.30L4104.60 3389.30L4104.60 3388.85L4102.81 3388.85ZM4108.86 3389.64L4108.66 3390.66L4106.69 3390.66C4106.68 3389.99 4106.68 3389.30 4106.68 3388.54L4107.84 3388.54L4107.95 3389.28L4108.26 3389.28L4108.26 3387.48L4107.95 3387.48L4107.83 3388.24L4106.68 3388.24C4106.68 3387.54 4106.68 3386.87 4106.69 3386.20L4108.51 3386.20L4108.72 3387.22L4109.09 3387.22L4109.05 3385.87L4105.25 3385.87L4105.25 3386.14L4105.96 3386.21C4105.98 3386.88 4105.98 3387.56 4105.98 3388.25L4105.98 3388.63C4105.98 3389.31 4105.98 3389.99 4105.96 3390.66L4105.25 3390.73L4105.25 3391L4109.20 3391L4109.24 3389.64ZM4113.33 3389.56L4113.08 3390.67L4111.31 3390.67C4111.30 3390.00 4111.30 3389.33 4111.30 3388.75L4111.30 3388.24C4111.30 3387.56 4111.30 3386.88 4111.31 3386.21L4112.03 3386.14L4112.03 3385.87L4109.87 3385.87L4109.87 3386.14L4110.58 3386.21C4110.60 3386.88 4110.60 3387.56 4110.60 3388.25L4110.60 3388.65C4110.60 3389.30 4110.60 3389.98 4110.58 3390.66L4109.87 3390.73L4109.87 3391L4113.67 3391L4113.73 3389.56ZM4117.89 3389.64L4117.69 3390.66L4115.72 3390.66C4115.71 3389.99 4115.71 3389.30 4115.71 3388.54L4116.87 3388.54L4116.98 3389.28L4117.29 3389.28L4117.29 3387.48L4116.98 3387.48L4116.86 3388.24L4115.71 3388.24C4115.71 3387.54 4115.71 3386.87 4115.72 3386.20L4117.54 3386.20L4117.75 3387.22L4118.12 3387.22L4118.08 3385.87L4114.28 3385.87L4114.28 3386.14L4114.99 3386.21C4115.01 3386.88 4115.01 3387.56 4115.01 3388.25L4115.01 3388.63C4115.01 3389.31 4115.01 3389.99 4114.99 3390.66L4114.28 3390.73L4114.28 3391L4118.23 3391L4118.27 3389.64ZM4122.66 3389.61L4122.47 3390.59C4122.18 3390.73 4121.88 3390.78 4121.59 3390.78C4120.49 3390.78 4119.72 3389.96 4119.72 3388.43C4119.72 3386.91 4120.56 3386.09 4121.62 3386.09C4121.88 3386.09 4122.13 3386.14 4122.40 3386.28L4122.59 3387.26L4123.01 3387.26L4123.00 3386.13C4122.49 3385.83 4121.97 3385.75 4121.53 3385.75C4120.03 3385.75 4118.93 3386.86 4118.93 3388.43C4118.93 3390.03 4119.99 3391.11 4121.53 3391.11C4122.08 3391.11 4122.59 3391 4123.07 3390.74L4123.08 3389.61ZM4127.29 3386.20L4127.50 3387.23L4127.87 3387.23L4127.83 3385.87L4123.62 3385.87L4123.56 3387.23L4123.94 3387.23L4124.15 3386.20L4125.35 3386.20C4125.37 3386.88 4125.37 3387.56 4125.37 3388.25L4125.37 3388.63C4125.37 3389.31 4125.37 3389.99 4125.35 3390.65L4124.56 3390.73L4124.56 3391L4126.87 3391L4126.87 3390.73L4126.08 3390.65C4126.07 3389.98 4126.07 3389.30 4126.07 3388.63L4126.07 3388.25C4126.07 3387.56 4126.07 3386.88 4126.08 3386.20ZM4129.80 3388.31C4129.80 3387.52 4129.80 3386.85 4129.81 3386.17L4130.48 3386.17C4131.28 3386.17 4131.65 3386.55 4131.65 3387.21C4131.65 3387.84 4131.24 3388.31 4130.42 3388.31ZM4132.33 3390.68L4131.97 3389.47C4131.79 3388.89 4131.54 3388.61 4131.05 3388.51C4131.93 3388.35 4132.37 3387.82 4132.37 3387.21C4132.37 3386.37 4131.68 3385.87 4130.52 3385.87L4128.37 3385.87L4128.37 3386.14L4129.09 3386.21C4129.10 3386.88 4129.10 3387.56 4129.10 3388.25L4129.10 3388.63C4129.10 3389.31 4129.10 3389.99 4129.09 3390.66L4128.37 3390.73L4128.37 3391L4130.53 3391L4130.53 3390.73L4129.81 3390.65C4129.80 3389.99 4129.80 3389.32 4129.80 3388.61L4130.21 3388.61C4130.84 3388.61 4131.09 3388.75 4131.25 3389.37L4131.56 3390.59C4131.65 3390.94 4131.86 3391.08 4132.34 3391.08C4132.58 3391.08 4132.77 3391.05 4132.92 3391L4132.92 3390.73ZM4135.24 3385.32L4135.36 3385.46C4135.68 3385.30 4136.01 3385.13 4136.33 3384.96C4136.62 3384.80 4136.72 3384.68 4136.72 3384.54C4136.72 3384.39 4136.59 3384.29 4136.44 3384.29C4136.30 3384.29 4136.18 3384.36 4135.96 3384.58C4135.73 3384.81 4135.48 3385.06 4135.24 3385.32ZM4134.05 3388.43C4134.05 3387.23 4134.53 3386.09 4135.60 3386.09C4136.67 3386.09 4137.14 3387.23 4137.14 3388.43C4137.14 3389.64 4136.67 3390.78 4135.60 3390.78C4134.53 3390.78 4134.05 3389.64 4134.05 3388.43ZM4135.60 3385.75C4134.40 3385.75 4133.26 3386.75 4133.26 3388.43C4133.26 3390.17 4134.39 3391.11 4135.60 3391.11C4136.81 3391.11 4137.93 3390.12 4137.93 3388.43C4137.93 3386.70 4136.79 3385.75 4135.60 3385.75ZM4143.49 3385.87L4141.68 3385.87L4141.68 3386.14L4142.50 3386.23L4142.51 3389.79L4139.68 3385.87L4138.49 3385.87L4138.49 3386.14L4139.04 3386.20L4139.12 3386.30L4139.10 3390.64L4138.46 3390.73L4138.46 3391L4140.27 3391L4140.27 3390.73L4139.45 3390.63L4139.44 3386.75L4142.57 3391.05L4142.84 3391.05L4142.85 3386.23L4143.49 3386.14ZM4146.23 3386.14L4146.23 3385.87L4144.07 3385.87L4144.07 3386.14L4144.79 3386.21C4144.80 3386.88 4144.80 3387.56 4144.80 3388.25L4144.80 3388.63C4144.80 3389.31 4144.80 3389.99 4144.79 3390.66L4144.07 3390.73L4144.07 3391L4146.23 3391L4146.23 3390.73L4145.51 3390.65C4145.50 3389.98 4145.50 3389.30 4145.50 3388.63L4145.50 3388.25C4145.50 3387.56 4145.50 3386.88 4145.51 3386.21ZM4150.50 3389.61L4150.31 3390.59C4150.02 3390.73 4149.71 3390.78 4149.43 3390.78C4148.33 3390.78 4147.56 3389.96 4147.56 3388.43C4147.56 3386.91 4148.40 3386.09 4149.46 3386.09C4149.71 3386.09 4149.97 3386.14 4150.24 3386.28L4150.43 3387.26L4150.85 3387.26L4150.83 3386.13C4150.33 3385.83 4149.81 3385.75 4149.37 3385.75C4147.87 3385.75 4146.77 3386.86 4146.77 3388.43C4146.77 3390.03 4147.82 3391.11 4149.37 3391.11C4149.92 3391.11 4150.43 3391 4150.90 3390.74L4150.92 3389.61ZM4152.79 3389.00L4153.58 3386.62L4154.38 3389.00ZM4155.65 3390.66L4154.00 3385.83L4153.55 3385.83L4151.92 3390.64L4151.30 3390.73L4151.30 3391L4153.00 3391L4153.00 3390.73L4152.26 3390.64L4152.70 3389.30L4154.47 3389.30L4154.92 3390.64L4154.17 3390.73L4154.17 3391L4156.25 3391L4156.25 3390.73ZM4158.42 3389.30L4160.21 3389.30L4160.21 3388.85L4158.42 3388.85ZM4164.23 3387.98C4163.67 3387.77 4163.36 3387.47 4163.36 3386.98C4163.36 3386.39 4163.81 3386.09 4164.43 3386.09C4164.67 3386.09 4164.86 3386.13 4165.05 3386.24L4165.25 3387.16L4165.65 3387.16L4165.70 3386.16C4165.36 3385.91 4164.95 3385.75 4164.44 3385.75C4163.47 3385.75 4162.73 3386.27 4162.73 3387.16C4162.73 3387.93 4163.25 3388.37 4164.05 3388.69L4164.34 3388.81C4165.02 3389.08 4165.30 3389.32 4165.30 3389.82C4165.30 3390.44 4164.82 3390.78 4164.08 3390.78C4163.75 3390.78 4163.52 3390.72 4163.27 3390.59L4163.08 3389.63L4162.69 3389.63L4162.64 3390.71C4162.99 3390.93 4163.55 3391.11 4164.13 3391.11C4165.19 3391.11 4165.93 3390.57 4165.93 3389.66C4165.93 3388.93 4165.56 3388.51 4164.53 3388.10ZM4168.69 3386.14L4168.69 3385.87L4166.54 3385.87L4166.54 3386.14L4167.25 3386.21C4167.26 3386.88 4167.26 3387.56 4167.26 3388.25L4167.26 3388.63C4167.26 3389.31 4167.26 3389.99 4167.25 3390.66L4166.54 3390.73L4166.54 3391L4168.69 3391L4168.69 3390.73L4167.98 3390.65C4167.96 3389.98 4167.96 3389.30 4167.96 3388.63L4167.96 3388.25C4167.96 3387.56 4167.96 3386.88 4167.98 3386.21ZM4170.95 3387.98C4170.40 3387.77 4170.08 3387.47 4170.08 3386.98C4170.08 3386.39 4170.54 3386.09 4171.16 3386.09C4171.39 3386.09 4171.58 3386.13 4171.78 3386.24L4171.97 3387.16L4172.37 3387.16L4172.42 3386.16C4172.09 3385.91 4171.68 3385.75 4171.16 3385.75C4170.20 3385.75 4169.45 3386.27 4169.45 3387.16C4169.45 3387.93 4169.98 3388.37 4170.78 3388.69L4171.06 3388.81C4171.75 3389.08 4172.03 3389.32 4172.03 3389.82C4172.03 3390.44 4171.55 3390.78 4170.81 3390.78C4170.48 3390.78 4170.25 3390.72 4170.00 3390.59L4169.80 3389.63L4169.41 3389.63L4169.36 3390.71C4169.71 3390.93 4170.27 3391.11 4170.85 3391.11C4171.92 3391.11 4172.66 3390.57 4172.66 3389.66C4172.66 3388.93 4172.28 3388.51 4171.26 3388.10ZM4176.87 3389.64L4176.67 3390.66L4174.70 3390.66C4174.69 3389.99 4174.69 3389.30 4174.69 3388.54L4175.85 3388.54L4175.96 3389.28L4176.27 3389.28L4176.27 3387.48L4175.96 3387.48L4175.85 3388.24L4174.69 3388.24C4174.69 3387.54 4174.69 3386.87 4174.70 3386.20L4176.52 3386.20L4176.73 3387.22L4177.11 3387.22L4177.06 3385.87L4173.26 3385.87L4173.26 3386.14L4173.98 3386.21C4173.99 3386.88 4173.99 3387.56 4173.99 3388.25L4173.99 3388.63C4173.99 3389.31 4173.99 3389.99 4173.98 3390.66L4173.26 3390.73L4173.26 3391L4177.21 3391L4177.25 3389.64ZM4184.10 3386.14L4184.10 3385.87L4182.62 3385.87L4180.96 3390.13L4179.23 3385.87L4177.83 3385.87L4177.83 3386.14L4178.53 3386.22L4178.53 3390.64L4177.83 3390.73L4177.83 3391L4179.55 3391L4179.55 3390.73L4178.88 3390.64L4178.88 3388.21C4178.88 3388.17 4178.86 3387.28 4178.84 3386.60L4180.63 3391L4180.96 3391L4182.69 3386.59L4182.68 3388.65C4182.68 3389.32 4182.68 3389.99 4182.67 3390.66L4182.01 3390.73L4182.01 3391L4184.09 3391L4184.09 3390.73L4183.38 3390.66C4183.37 3389.98 4183.37 3389.30 4183.37 3388.63L4183.37 3388.25C4183.37 3387.56 4183.37 3386.88 4183.38 3386.21ZM4186.23 3390.69C4186.22 3390.00 4186.22 3389.30 4186.22 3388.50L4186.66 3388.50C4187.72 3388.50 4188.19 3388.87 4188.19 3389.61C4188.19 3390.31 4187.70 3390.69 4186.74 3390.69ZM4186.77 3386.17C4187.58 3386.17 4187.97 3386.46 4187.97 3387.14C4187.97 3387.86 4187.55 3388.19 4186.63 3388.19L4186.22 3388.19C4186.22 3387.51 4186.22 3386.83 4186.23 3386.17ZM4184.79 3385.87L4184.79 3386.14L4185.51 3386.21C4185.52 3386.88 4185.52 3387.56 4185.52 3388.24L4185.52 3388.61C4185.52 3389.29 4185.52 3389.98 4185.51 3390.66L4184.79 3390.73L4184.79 3391L4186.88 3391C4188.35 3391 4188.91 3390.30 4188.91 3389.60C4188.91 3388.97 4188.48 3388.47 4187.44 3388.32C4188.31 3388.14 4188.66 3387.65 4188.66 3387.11C4188.66 3386.39 4188.07 3385.87 4186.98 3385.87Z"  stroke="none" stroke-width="0.8"  /></g><g c_partid="part_pcbtext" c_etype="" c_origin="4055,3353.799" c_rotation="90" c_mirror="0" id="gge46578" locked="0" layerid="3" c_shapetype="group" ><path c_fontsize="3.1496" c_fontfamily="" c_text="POWER" d="M 4051.8195 3353.7993 L 4054.8295 3353.7993 M 4051.8195 3353.7993 L 4051.8195 3352.5093 L 4051.9695 3352.0793 L 4052.1095 3351.9393 L 4052.3895 3351.7993 L 4052.8195 3351.7993 L 4053.1095 3351.9393 L 4053.2495 3352.0793 L 4053.3995 3352.5093 L 4053.3995 3353.7993 M 4051.8195 3349.9893 L 4051.9695 3350.2793 L 4052.2495 3350.5593 L 4052.5395 3350.7093 L 4052.9695 3350.8493 L 4053.6795 3350.8493 L 4054.1095 3350.7093 L 4054.3995 3350.5593 L 4054.6895 3350.2793 L 4054.8295 3349.9893 L 4054.8295 3349.4193 L 4054.6895 3349.1293 L 4054.3995 3348.8493 L 4054.1095 3348.6993 L 4053.6795 3348.5593 L 4052.9695 3348.5593 L 4052.5395 3348.6993 L 4052.2495 3348.8493 L 4051.9695 3349.1293 L 4051.8195 3349.4193 L 4051.8195 3349.9893 M 4051.8195 3347.6193 L 4054.8295 3346.8993 M 4051.8195 3346.1793 L 4054.8295 3346.8993 M 4051.8195 3346.1793 L 4054.8295 3345.4693 M 4051.8195 3344.7493 L 4054.8295 3345.4693 M 4051.8195 3343.8093 L 4054.8295 3343.8093 M 4051.8195 3343.8093 L 4051.8195 3341.9493 M 4053.2495 3343.8093 L 4053.2495 3342.6593 M 4054.8295 3343.8093 L 4054.8295 3341.9493 M 4051.8195 3340.9993 L 4054.8295 3340.9993 M 4051.8195 3340.9993 L 4051.8195 3339.7093 L 4051.9695 3339.2793 L 4052.1095 3339.1393 L 4052.3895 3338.9993 L 4052.6795 3338.9993 L 4052.9695 3339.1393 L 4053.1095 3339.2793 L 4053.2495 3339.7093 L 4053.2495 3340.9993 M 4053.2495 3339.9993 L 4054.8295 3338.9993" fill="none"  stroke-width="0.5"  /></g><g c_partid="part_pcbtext" c_etype="" c_origin="4398,3202.3" c_rotation="270" c_mirror="0" id="gge127601" locked="0" layerid="3" c_shapetype="group" display="none"><path c_fontsize="4.5" c_fontfamily="" c_text="RP4" d="M 4402.5396 3202.2997 L 4398.2496 3202.2997 M 4402.5396 3202.2997 L 4402.5396 3204.1397 L 4402.3396 3204.7497 L 4402.1296 3204.9597 L 4401.7196 3205.1597 L 4401.3096 3205.1597 L 4400.8996 3204.9597 L 4400.6996 3204.7497 L 4400.4996 3204.1397 L 4400.4996 3202.2997 M 4400.4996 3203.7297 L 4398.2496 3205.1597 M 4402.5396 3206.5097 L 4398.2496 3206.5097 M 4402.5396 3206.5097 L 4402.5396 3208.3497 L 4402.3396 3208.9697 L 4402.1296 3209.1697 L 4401.7196 3209.3797 L 4401.1096 3209.3797 L 4400.6996 3209.1697 L 4400.4996 3208.9697 L 4400.2896 3208.3497 L 4400.2896 3206.5097 M 4402.5396 3212.7697 L 4399.6796 3210.7297 L 4399.6796 3213.7997 M 4402.5396 3212.7697 L 4398.2496 3212.7697" fill="none"  stroke-width="0.6" c_note="note_name" /></g><g c_partid="part_pcbtext" c_etype="" c_origin="4391,3202.3" c_rotation="270" c_mirror="0" id="gge127607" locked="0" layerid="3" c_shapetype="group" ><path c_fontsize="4.5" c_fontfamily="" c_text="U1" d="M 4395.5393 3202.3 L 4392.4693 3202.3 L 4391.8593 3202.5 L 4391.4493 3202.91 L 4391.2493 3203.53 L 4391.2493 3203.94 L 4391.4493 3204.55 L 4391.8593 3204.96 L 4392.4693 3205.16 L 4395.5393 3205.16 M 4394.7193 3206.51 L 4394.9293 3206.92 L 4395.5393 3207.54 L 4391.2493 3207.54" fill="none"  stroke-width="0.6" c_note="note_pre" /></g><g c_partid="part_pcbtext" c_etype="" c_origin="4022,3347.299" c_rotation="90" c_mirror="0" id="gge45744" locked="0" layerid="3" c_shapetype="group" display="none"><path c_fontsize="4.5" c_fontfamily="" c_text="HDR-M-2.54_2x4" d="M 4017.4601 3347.2993 L 4021.7501 3347.2993 M 4017.4601 3344.4393 L 4021.7501 3344.4393 M 4019.5001 3347.2993 L 4019.5001 3344.4393 M 4017.4601 3343.0893 L 4021.7501 3343.0893 M 4017.4601 3343.0893 L 4017.4601 3341.6493 L 4017.6601 3341.0393 L 4018.0701 3340.6293 L 4018.4801 3340.4293 L 4019.1001 3340.2193 L 4020.1201 3340.2193 L 4020.7301 3340.4293 L 4021.1401 3340.6293 L 4021.5501 3341.0393 L 4021.7501 3341.6493 L 4021.7501 3343.0893 M 4017.4601 3338.8693 L 4021.7501 3338.8693 M 4017.4601 3338.8693 L 4017.4601 3337.0293 L 4017.6601 3336.4193 L 4017.8701 3336.2093 L 4018.2801 3336.0093 L 4018.6901 3336.0093 L 4019.1001 3336.2093 L 4019.3001 3336.4193 L 4019.5001 3337.0293 L 4019.5001 3338.8693 M 4019.5001 3337.4393 L 4021.7501 3336.0093 M 4019.9101 3334.6593 L 4019.9101 3330.9793 M 4017.4601 3329.6293 L 4021.7501 3329.6293 M 4017.4601 3329.6293 L 4021.7501 3327.9893 M 4017.4601 3326.3493 L 4021.7501 3327.9893 M 4017.4601 3326.3493 L 4021.7501 3326.3493 M 4019.9101 3324.9993 L 4019.9101 3321.3193 M 4018.4801 3319.7693 L 4018.2801 3319.7693 L 4017.8701 3319.5593 L 4017.6601 3319.3593 L 4017.4601 3318.9493 L 4017.4601 3318.1293 L 4017.6601 3317.7193 L 4017.8701 3317.5193 L 4018.2801 3317.3093 L 4018.6901 3317.3093 L 4019.1001 3317.5193 L 4019.7101 3317.9293 L 4021.7501 3319.9693 L 4021.7501 3317.1093 M 4020.7301 3315.5493 L 4020.9401 3315.7593 L 4021.1401 3315.5493 L 4020.9401 3315.3493 L 4020.7301 3315.5493 M 4017.4601 3311.5493 L 4017.4601 3313.5893 L 4019.3001 3313.7993 L 4019.1001 3313.5893 L 4018.8901 3312.9793 L 4018.8901 3312.3593 L 4019.1001 3311.7493 L 4019.5001 3311.3393 L 4020.1201 3311.1393 L 4020.5301 3311.1393 L 4021.1401 3311.3393 L 4021.5501 3311.7493 L 4021.7501 3312.3593 L 4021.7501 3312.9793 L 4021.5501 3313.5893 L 4021.3501 3313.7993 L 4020.9401 3313.9993 M 4017.4601 3307.7393 L 4020.3201 3309.7893 L 4020.3201 3306.7193 M 4017.4601 3307.7393 L 4021.7501 3307.7393 M 4023.1901 3305.3693 L 4023.1901 3301.6893 M 4018.4801 3300.1293 L 4018.2801 3300.1293 L 4017.8701 3299.9293 L 4017.6601 3299.7193 L 4017.4601 3299.3093 L 4017.4601 3298.4993 L 4017.6601 3298.0893 L 4017.8701 3297.8793 L 4018.2801 3297.6793 L 4018.6901 3297.6793 L 4019.1001 3297.8793 L 4019.7101 3298.2893 L 4021.7501 3300.3393 L 4021.7501 3297.4693 M 4018.8901 3296.1193 L 4021.7501 3293.8693 M 4018.8901 3293.8693 L 4021.7501 3296.1193 M 4017.4601 3290.4793 L 4020.3201 3292.5193 L 4020.3201 3289.4493 M 4017.4601 3290.4793 L 4021.7501 3290.4793" fill="none"  stroke-width="0.6" c_note="note_name" /></g><g c_partid="part_pcbtext" c_etype="" c_origin="4029,3347.299" c_rotation="90" c_mirror="0" id="gge45750" locked="0" layerid="3" c_shapetype="group" display="none"><path c_fontsize="4.5" c_fontfamily="" c_text="J1" d="M 4024.4601 3345.2493 L 4027.7301 3345.2493 L 4028.3501 3345.4593 L 4028.5501 3345.6593 L 4028.7501 3346.0693 L 4028.7501 3346.4793 L 4028.5501 3346.8893 L 4028.3501 3347.0993 L 4027.7301 3347.2993 L 4027.3201 3347.2993 M 4025.2801 3343.8993 L 4025.0701 3343.4993 L 4024.4601 3342.8793 L 4028.7501 3342.8793" fill="none"  stroke-width="0.6" c_note="note_pre" /></g><path d="M4027.8741,3008.2685 A5.9715,5.9715 0 0 0 4021.97,3014.17" locked="0"  fill="none" stroke-width="1.5748" c_helper_type="arc2" net="S$1707" layerid="3" id="gge40832" /><path d="M 4411.7316 3014.174 A 5.9715 5.9715 0 0 0 4405.8301 3008.2699" locked="0"  fill="none" stroke-width="1.5748" c_helper_type="arc2" net="S$1707" layerid="3" id="gge40841" /><path d="M 4405.8261 3398.0315 A 5.9715 5.9715 0 0 0 4411.7302 3392.13" locked="0"  fill="none" stroke-width="1.5748" c_helper_type="arc2" net="S$1707" layerid="3" id="gge40850" /><path d="M 4021.9686 3392.126 A 5.9715 5.9715 0 0 0 4027.8701 3398.0301" locked="0"  fill="none" stroke-width="1.5748" c_helper_type="arc2" net="S$1707" layerid="3" id="gge40859" /><path d="M 4377.4996 3034.9887 A 11.811 11.811 0 0 1 4389.3106 3046.7997" locked="0"  fill="none" stroke-width="0.7874" c_helper_type="arc2" net="" layerid="3" id="gge127793" /><path d="M 4168.8386 3046.7997 A 11.811 11.811 0 0 1 4180.6496 3034.9887" locked="0"  fill="none" stroke-width="0.7874" c_helper_type="arc2" net="" layerid="3" id="gge127796" /><path d="M 4180.6496 3369.6337 A 11.811 11.811 0 0 1 4168.8386 3357.8227" locked="0"  fill="none" stroke-width="0.7874" c_helper_type="arc2" net="" layerid="3" id="gge127799" /><path d="M 4389.3106 3357.8227 A 11.811 11.811 0 0 1 4377.4996 3369.6337" locked="0"  fill="none" stroke-width="0.7874" c_helper_type="arc2" net="" layerid="3" id="gge127802" /><path d="M 4095 3181.2997 C 4094.2354 3181.5447 4093.1276 3182.5874 4092.7054 3183.4595 C 4092.1805 3184.5439 4092.2032 3186.0202 4092.7615 3187.1001 C 4093.5655 3188.6551 4094.8098 3189.4112 4096.5745 3189.4172 C 4100.9184 3189.4317 4102.3589 3183.5587 4098.5052 3181.5455 C 4097.8031 3181.1787 4097.4592 3181.1015 4096.5877 3181.1149 C 4096.0036 3181.1239 4095.2891 3181.207 4095 3181.2997 M 4080.1915 3191.0734 C 4079.0414 3191.4271 4078.5249 3192.2859 4078.9662 3193.1105 C 4079.2242 3193.5926 4079.8797 3193.8504 4081.7476 3194.2045 C 4082.6996 3194.385 4083.585 3194.6209 4083.7151 3194.7289 C 4084.1058 3195.0531 4083.5158 3195.3422 4082.4634 3195.3422 C 4081.6748 3195.3422 4081.501 3195.2858 4081.2306 3194.9421 C 4080.9469 3194.5814 4080.8023 3194.542 4079.7613 3194.542 L 4078.6067 3194.542 L 4078.7169 3194.9812 C 4078.9747 3196.0082 4079.6856 3196.3373 4081.8452 3196.429 C 4084.0941 3196.5246 4085.2569 3196.2806 4085.9748 3195.5627 C 4086.4233 3195.1142 4086.4984 3194.9438 4086.4076 3194.5818 C 4086.1745 3193.6533 4085.648 3193.3733 4083.365 3192.9638 C 4081.5737 3192.6425 4081.1507 3192.4488 4081.4929 3192.1065 C 4081.7915 3191.808 4083.4517 3191.8784 4083.6865 3192.1996 C 4083.9583 3192.5713 4086.1633 3192.5842 4086.1633 3192.2141 C 4086.1633 3191.8231 4085.4614 3191.2234 4084.7834 3191.0351 C 4083.9695 3190.8092 4080.9693 3190.8342 4080.1915 3191.0734 M 4087.6037 3193.7418 L 4087.6037 3196.4625 L 4090.9645 3196.4625 L 4094.3254 3196.4625 L 4094.3254 3195.9023 L 4094.3254 3195.3422 L 4092.1648 3195.3422 L 4090.0043 3195.3422 L 4090.0043 3194.782 L 4090.0043 3194.2219 L 4091.9248 3194.2219 L 4093.8452 3194.2219 L 4093.8452 3193.6668 L 4093.8452 3193.1118 L 4091.9648 3193.0667 L 4090.0843 3193.0216 L 4090.0337 3192.5815 L 4089.983 3192.1414 L 4092.0742 3192.1414 L 4094.1653 3192.1414 L 4094.1653 3191.5812 L 4094.1653 3191.0211 L 4090.8845 3191.0211 L 4087.6037 3191.0211 L 4087.6037 3193.7418 M 4095.6057 3193.7418 L 4095.6057 3196.4625 L 4096.726 3196.4625 L 4097.8463 3196.4625 L 4097.8463 3194.6887 C 4097.8463 3193.7131 4097.9101 3192.9389 4097.9881 3192.9682 C 4098.0661 3192.9976 4098.7971 3193.7958 4099.6126 3194.742 L 4101.0953 3196.4625 L 4102.7516 3196.4625 L 4104.4079 3196.4625 L 4104.4079 3193.7418 L 4104.4079 3191.0211 L 4103.2129 3191.0211 L 4102.0178 3191.0211 L 4101.9726 3192.7966 L 4101.9273 3194.5721 L 4100.3269 3192.7971 L 4098.7265 3191.0221 L 4097.1661 3191.0216 L 4095.6057 3191.0211 L 4095.6057 3193.7418 M 4107.0015 3193.3017 C 4106.1307 3194.556 4105.2907 3195.7803 4105.1348 3196.0224 L 4104.8512 3196.4625 L 4106.0609 3196.4625 C 4107.2353 3196.4625 4107.2788 3196.4484 4107.5542 3195.9823 L 4107.8378 3195.5022 L 4109.7638 3195.5032 L 4111.6898 3195.5042 L 4111.9624 3195.9834 C 4112.2317 3196.4567 4112.2515 3196.4625 4113.5993 3196.4625 L 4114.9636 3196.4625 L 4113.1667 3193.7429 L 4111.3697 3191.0233 L 4109.9772 3191.0222 L 4108.5847 3191.0211 L 4107.0015 3193.3017 M 4110.4396 3193.3017 C 4110.9436 3194.1361 4110.9447 3194.1426 4110.5982 3194.246 C 4110.0541 3194.4083 4108.729 3194.3988 4108.729 3194.2325 C 4108.729 3194.0333 4109.7103 3192.4614 4109.8347 3192.4614 C 4109.8883 3192.4614 4110.1606 3192.8395 4110.4396 3193.3017 M 4076.7209 3199.5973 L 4076.7209 3201.1318 L 4082.4647 3201.0835 C 4087.0773 3201.0447 4088.2593 3201.0773 4088.4663 3201.2491 C 4089.0604 3201.7421 4088.8089 3202.3143 4085.2973 3208.46 L 4081.8712 3214.456 L 4082.9201 3215.4218 C 4083.497 3215.9529 4084.0148 3216.4063 4084.0709 3216.4292 C 4084.1647 3216.4676 4085.6256 3213.9791 4091.8933 3203.1041 C 4093.1616 3200.9036 4094.3416 3198.8691 4094.5155 3198.583 L 4094.8316 3198.0629 L 4085.7762 3198.0629 L 4076.7209 3198.0629 L 4076.7209 3199.5973 M 4098.6406 3198.9031 C 4098.905 3199.3652 4101.2651 3203.5046 4103.8852 3208.1018 C 4106.5053 3212.6989 4108.6926 3216.4439 4108.7459 3216.4239 C 4108.7992 3216.4039 4109.3284 3215.9405 4109.9218 3215.3942 L 4111.0008 3214.4009 L 4107.6449 3208.5925 C 4103.5481 3201.5018 4103.8943 3202.1728 4104.0802 3201.684 C 4104.3678 3200.9274 4104.5558 3200.9063 4110.4702 3200.9669 L 4116.0109 3201.0236 L 4116.0569 3199.5432 L 4116.1029 3198.0629 L 4107.1314 3198.0629 L 4098.1599 3198.0629 L 4098.6406 3198.9031 M 4091.4763 3209.5578 C 4088.8182 3214.1195 4086.6434 3217.8997 4086.6434 3217.9581 C 4086.6434 3218.0166 4087.2076 3218.348 4087.8971 3218.6947 L 4089.1508 3219.325 L 4092.0898 3214.3567 C 4096.0583 3207.6483 4095.8325 3207.9849 4096.3624 3207.9878 C 4096.6064 3207.9892 4096.8881 3208.0432 4096.9884 3208.1079 C 4097.0887 3208.1725 4098.6303 3210.7101 4100.4141 3213.7469 C 4102.1979 3216.7836 4103.667 3219.2831 4103.6788 3219.3012 C 4103.7544 3219.4172 4106.3244 3217.9539 4106.2905 3217.8141 C 4106.2239 3217.5393 4096.496 3201.2662 4096.3976 3201.2649 C 4096.349 3201.2642 4094.1344 3204.996 4091.4763 3209.5578" stroke="none" layerid="3" id="gge97324"></path><polyline points="4020.0001 3392.126 4020.0001 3014.174" stroke-width="1"  stroke-linecap="round" fill="none" layerid="10" net="S$1564" id="gge1563" locked="0" /><polyline points="4405.8261 3400 4027.8741 3400" stroke-width="1"  stroke-linecap="round" fill="none" layerid="10" net="S$1553" id="gge40781" locked="0" /><polyline points="4413.7001 3392.126 4413.7001 3014.174" stroke-width="1"  stroke-linecap="round" fill="none" layerid="10" net="S$1703" id="gge40784" locked="0" /><polyline points="4405.8261 3006.3 4027.8741 3006.3" stroke-width="1"  stroke-linecap="round" fill="none" layerid="10" net="S$1707" id="gge1706" locked="0" /><path d="M4027.8741,3006.3 A7.853,7.853 0 0 0 4020,3014.17" locked="0"  fill="none" stroke-width="1" c_helper_type="arc2" net="S$1707" layerid="10" id="gge40796" /><path d="M 4413.6791 3014.1951 A 7.853 7.853 0 0 0 4405.8091 3006.321" locked="0"  fill="none" stroke-width="1" c_helper_type="arc2" net="S$1707" layerid="10" id="gge40808" /><path d="M 4405.805 3399.979 A 7.853 7.853 0 0 0 4413.6791 3392.109" locked="0"  fill="none" stroke-width="1" c_helper_type="arc2" net="S$1707" layerid="10" id="gge40817" /><path d="M 4020.0211 3392.1049 A 7.853 7.853 0 0 0 4027.8911 3399.979" locked="0"  fill="none" stroke-width="1" c_helper_type="arc2" net="S$1707" layerid="10" id="gge40826" /></svg>