<svg xmlns="http://www.w3.org/2000/svg" viewBox="0 0 200 200">
  <!-- Fondo circular -->
  <circle cx="100" cy="100" r="90" fill="#f0f0f0" />
  
  <!-- Libro abierto -->
  <path d="M50 70 L100 50 L150 70 L150 140 L100 160 L50 140 Z" fill="#4a90e2" />
  <path d="M100 50 L100 160" stroke="#ffffff" stroke-width="2" />
  
  <!-- Engranaje -->
  <g transform="translate(100,100) scale(0.6)">
    <circle cx="0" cy="0" r="40" fill="#ff6b6b" />
    <g fill="#ffffff">
      <rect x="-5" y="-40" width="10" height="20" />
      <rect x="-5" y="20" width="10" height="20" />
      <rect x="-40" y="-5" width="20" height="10" />
      <rect x="20" y="-5" width="20" height="10" />
      <rect x="-30" y="-30" width="15" height="15" transform="rotate(45)" />
      <rect x="15" y="-30" width="15" height="15" transform="rotate(45)" />
      <rect x="-30" y="15" width="15" height="15" transform="rotate(45)" />
      <rect x="15" y="15" width="15" height="15" transform="rotate(45)" />
    </g>
  </g>
  
  <!-- Lápiz -->
  <g transform="translate(135,135) rotate(-45)">
    <rect x="-5" y="-40" width="10" height="70" fill="#feca57" />
    <polygon points="0,-50 -5,-40 5,-40" fill="#ff6b6b" />
  </g>
</svg>
